<?xml version="1.0" encoding="utf-8"?>
<!-- Generator: Adobe Illustrator 18.1.1, SVG Export Plug-In . SVG Version: 6.00 Build 0)  -->
<svg width="500px" height="500px" version="1.1" id="Layer_1" xmlns="http://www.w3.org/2000/svg" xmlns:xlink="http://www.w3.org/1999/xlink" x="0px" y="0px"
	 viewBox="0 0 500 500" enable-background="new 0 0 500 500" xml:space="preserve">
<g>
	<g>
		<path stroke="#000000" stroke-width="8" stroke-miterlimit="10" d="M143.6,420c-46.9-22.6-77.3-71.2-77.3-123.2V26.2h369.5v270.6
			c0,52.5-30.4,100.5-77.3,123.2l-107.1,51.9L143.6,420z"/>
		<path fill="#1B293B" d="M348.5,400.7l-97.8,46.9L153,400.7c-39.8-19.3-65.7-59.6-65.7-103.8V47.2h326.9v249.1
			C414.2,341,388.3,381.3,348.5,400.7z"/>
		<path fill="#585555" d="M349,401.8l-97.8,46.9l-97.8-46.9c-39.8-19.3-65.7-59.6-65.7-103.8V48.3h326.9v249.1
			C414.2,342.1,388.8,382.4,349,401.8z"/>
		<path fill="#383838" d="M87.8,308.4c4.4,39.8,28.7,74.6,64.6,92.2l97.8,46.9l98.3-46.9c39.8-19.3,65.7-59.6,65.7-103.8V47.2
			C414.2,47.2,90.6,309.5,87.8,308.4z"/>
		<g>
			<path fill="#CCCCCC" d="M414.2,47.2v249.1c0,44.2-25.4,85-65.7,103.8L250.7,447L153,400.7c-39.8-19.3-65.7-59.6-65.7-103.8V47.2
				H414.2 M420.3,41.1h-6.1H87.3h-6.1v6.1v249.1c0,22.6,6.6,45.3,18.8,64.6c12.1,19.3,29.8,34.8,50.3,44.7l97.8,46.9l2.8,1.1
				l2.8-1.1l97.8-46.4c20.4-9.9,38.1-25.4,50.3-44.7c12.1-19.3,18.8-42,18.8-64.6V47.2V41.1L420.3,41.1z"/>
		</g>
	</g>
	<g>
		<g>
			<g>
				<defs>
					<path id="SVGID_1_" d="M348.5,400.7l-97.8,46.9L153,400.7c-39.8-19.3-65.7-59.6-65.7-103.8V47.2h326.9v64.6l25.4,108.8
						l-25.4,55.2v21C414.2,341,388.3,381.3,348.5,400.7z"/>
				</defs>
				<clipPath id="SVGID_2_">
					<use xlink:href="#SVGID_1_"  overflow="visible"/>
				</clipPath>
				<g clip-path="url(#SVGID_2_)">
					<path d="M347.4,220.6l45.8-60.2c0,0-1.7-50.8-75.1-67.9c-72.9-17.1-153.5-8.3-150.2-0.6c2.2,6.1,5,8.3,6.6,8.8
						c-32.6,8.8-77.3,60.7-91.1,96.6c-8.3,21.5-8.8,114.9-10.5,137c-1.1,12.1,21,51.9,50.3,93.3c24.9,8.8,49.7,16.6,75.7,22.6
						c29.3,7.2,58.5,11.6,88.4,14.4c10.5-7.2,21-14.9,30.9-23.2c16.6-13.8,53.6-26.5,67.4-43.1c8.3-9.9,18.8-35.9,26-46.4
						C339.7,288,347.4,220.6,347.4,220.6z"/>
					<g>
						<path fill="#AFAEAA" d="M107.7,408.4c20.4,30.9,51.4,49.2,84.5,78.4c20.4,17.7,37,32,50.3,43.6c7.2,6.1,13.8,11.6,18.8,16
							c48.6-41.4,98.3-81.7,145.8-124.3c-19.3-27.1-87.8-130.3-69.6-213.7c0-0.6,14.9-13.3,14.9-14.4c6.6-28.2,26.5-32.6,26.5-32.6
							s1.7-23.7-26-43.6c-36.4-25.4-127-31.5-160.7-24.9c0,0,6.1,3.3,11.6,5.5c8.3,3.3,11,6.1,11,6.1s-23.7-2.8-48,12.7
							c-24.3,15.5-42.5,37.6-51.4,48.6c-3.3,3.9-5,6.6-5,7.2c0.6-0.6,7.7-8.3,17.1-14.4l0,0c1.1-0.6,2.8-1.7,3.9-2.2
							c0.6-0.6,1.7-0.6,2.8-1.1c12.1-5.5,25.4-7.2,25.4-7.2c-2.2,1.7-45.3,45.3-66.8,89.5c-6.6,13.8-11.6,26.5-14.4,38.1l0,0
							c-8.3,28.7-10.5,65.7-10.5,65.7s1.7,2.8,3.9,8.3c0.6,1.7,1.7,3.9,3.3,5.5c3.9,7.2,9.4,17.1,16,28.2
							C97.2,391.8,102.2,399.6,107.7,408.4z"/>
					</g>
					<path fill="#FFFFFF" d="M263.4,93.6c12.1,3.3,23.7,7.2,35.3,11c9.9,3.3,19.9,7.2,28.2,12.7c8.8,5.5,14.9,13.8,20.4,22.6
						c6.1,9.9,11,20.4,16.6,30.4l0,0c7.2-7.2,14.4-8.8,14.4-8.8s1.7-23.7-26-43.6c-20.4-14.4-58.5-22.6-93.3-26
						C260.7,93,262.3,93.6,263.4,93.6z"/>
					<g>
						<path fill="#686868" d="M163.5,178.1c0,0,12.7-5,23.7-6.6c0,0-48.6,49.2-67.4,109.9c-8.8,28.7-17.1,60.2-23.2,85
							c-6.6-11.6-12.1-21-16-28.2c-1.1-21-1.7-43.1-0.6-61.9l0,0c3.3-11.6,7.7-24.3,14.4-38.1c21.5-44.2,64.6-88.4,66.8-89.5
							c0,0-13.3,1.7-25.4,7.2c14.4-7.2,32-14.4,52.5-17.7C187.8,137.8,172.9,152.7,163.5,178.1z"/>
					</g>
					<g>
						<path fill="#686868" d="M337.4,208.5l-0.6-30.9h-10.5c0,0-17.1,31.5-60.7,45.8c-33.1,11-57.4,14.9-82.8,38.1
							c1.1,0,14.4-2.2,21-2.2c0,0-69.6,41.4-88.9,102.2c-13.8,45.3-10.5,70.7-7.2,69.6c20.4,30.9,50.8,26.5,83.9,55.2
							c20.4,17.7,37,32,50.3,43.6l17.1,17.7c24.3-20.4,48.6-40.9,72.9-61.3l34.8-108.8C367.3,378,316.5,305.1,337.4,208.5z"/>
					</g>
					<path fill="#FFFFFF" d="M328.1,425c4.4,9.9,9.4,19.3,14.9,28.7l24.3-75.7c0,0-51.4-72.3-30.4-169l-0.6-30.9h-0.6
						c-15.5,21-25.4,45.8-30.9,71.2c-6.1,27.6-6.6,55.8-2.2,84.5C306.5,364.8,315.4,395.7,328.1,425z"/>
					<path d="M318.7,238.8l-46.4-9.9c0,0-46.4,21-42,71.2c0,0,11.6-18.8,22.6-26c0,0-22.1,32-19.3,96.6
						c2.2,53.6,14.4,90.6,14.4,90.6s-5.5-69,12.1-108.8c0,0,4.4,95.5,48.6,153c14.4-12.1,29.3-24.3,43.6-36.4l14.9-91.7
						C367.3,378,304.9,328.3,318.7,238.8z"/>
					<path d="M398.2,151c-13.3-5.5-42.5-8.8-56.9-7.2c-9.4,1.1-12.7,1.1-12.7,1.1s-10.5,6.1-15.5,19.3c0,0,3.9-0.6,9.4,1.7
						c0,0-3.9,22.6-11,35.9c-2.8,5-17.1,14.4-39.8,27.1c0.6,3.9,13.8,7.7,14.4,11.6c9.9-1.1,16.6-2.2,16.6-2.2s-2.8,15.5,1.7,23.2
						c0,0,16-25.4,60.2-33.1c17.7-3.3,28.2-5,32.6,7.7c2.2,7.2,3.3,16.6,3.3,16.6s28.7-6.6,34.2-40.9
						C440.2,180.9,418.6,159.9,398.2,151z"/>
					<g>
						<g>
							<path fill="#E2E2E2" d="M389.9,159.9c-11.6-6.1-28.7-8.3-40.3-8.3c-4.4,0-11,0.6-13.8,2.2c9.4-1.1,20.4,9.4,20.4,9.4
								c-8.8-0.6-18.8,1.7-21.5,3.9s-9.9,8.3-23.2,27.1s-39.2,34.8-39.2,34.8s22.1-9.9,46.9-20.4c23.2-9.9,64.6-14.4,79.5-7.2
								c14.9,7.2,13.8,28.2,13.8,28.2s8.8-5.5,10.5-19.9C425.8,180.3,401.5,165.9,389.9,159.9z"/>
						</g>
						<g>
							<path fill="#FFFFFF" d="M389.9,159.9c-11.6-6.1-28.7-8.3-40.3-8.3c-4.4,0-11,0.6-13.8,2.2c13.8-2.2,35.9,0.6,51.4,9.9
								c13.8,8.3,23.7,24.3,23.7,34.8c0,0-1.7-0.6-11.6-0.6c-3.3,0-13.3,0.6-13.3,0.6c5.5,0.6,9.9,1.7,13.3,3.3
								c14.9,7.2,13.8,28.2,13.8,28.2s8.8-5.5,10.5-19.9C425.8,180.3,401.5,165.9,389.9,159.9z"/>
						</g>
						<g>
							<path fill="#51504C" d="M271.7,228.9c0,0,17.1-13.8,46.9-20.4c38.1-8.8,60.2,5,60.2,5s-32.6,5-45.8,11.6
								c-13.3,6.6-17.7,10.5-17.7,10.5s1.7-8.3,4.4-13.3C319.8,222.8,290.5,222.8,271.7,228.9z"/>
						</g>
						<path d="M304.9,200.7c-21.5,14.4-70.1,23.7-82.3,49.7c0,0,12.7-6.6,34.2-11.6C277.8,233.9,304.9,200.7,304.9,200.7z"/>
					</g>
					<g>
						<g>
							<path fill="#383838" d="M277.2,152.7c-11.6-2.8-23.2-6.6-33.7-12.7c-12.7-1.7-27.1,3.9-27.1,3.9s8.8,0,12.1,3.3
								c1.7,1.7,0,4.4,0,13.3c0,19.3,23.2,21,42,17.1c16.6-3.9,29.3-9.4,33.1-19.3C291.6,154.9,288.3,155.5,277.2,152.7z"/>
						</g>
						<path d="M302.7,142.7c0,0-3.3,9.9-9.4,8.8c-8.8-1.7-35.3-21.5-53.6-21.5c-8.3,0-16.6,9.4-23.2,13.8c0,0,13.3-2.8,23.7,1.7
							c0,0-1.7,9.4,10.5,17.7c12.1,8.3,32.6,0.6,32.6,0.6s0,7.2-18.2,10.5c0,0,24.3,2.8,34.8-9.9
							C307.6,154.9,302.7,142.7,302.7,142.7z"/>
						<path fill="#AFAEAA" d="M279.5,153.8c-11.6,0.6-26.5-7.2-30.4-7.2c0,0,0,12.7,8.3,18.2C271.2,173.7,279.5,153.8,279.5,153.8z"
							/>
						<path fill="#FFFFFF" d="M255.2,148.3c0,4.4,2.2,8.3,6.6,8.8c4.4,0.6,11-3.3,11-3.3s-3.9-1.7-8.3-2.8
							C259,149.9,255.2,148.3,255.2,148.3z"/>
						<path d="M264,151c2.8,0.6,3.3,2.2,2.2,3.9c-1.1,1.7-6.1,1.7-6.1,1.7s2.2,1.7,6.6,1.7c8.3-0.6,8.8-4.4,8.8-4.4
							s-2.2-3.3-6.1-3.9C266.2,149.9,264,151,264,151z"/>
					</g>
					<path d="M354.6,468c21-17.7,41.4-35.9,61.9-54.1c-19.3-37.6-75.7-145.8-81.7-182.8c0,0-22.6,43.1,0.6,134.8
						C344.6,404,351.8,451.5,354.6,468z"/>
					<path fill="#FFFFFF" d="M240.8,151.6c0,0,0,9.9,13.3,16c10.5,5,29.3-3.9,29.3-3.9s-18.2,5.5-30.9-1.7
						C240.8,155.5,240.8,151.6,240.8,151.6z"/>
					<path d="M117.1,449.3l-15.5-30.9c0,0-2.2-76.8,40.9-148.6c0,0-37,30.9-53,80.1c7.2-40.9,22.6-98.9,54.7-164.6
						c0,0-37.6,21-69,76.8c-24.3,44.2-16,123.2-11,155.2C82.3,427.2,100,437.7,117.1,449.3z"/>
					<path d="M188.9,400.1c-7.2-63-1.7-107.7-1.7-107.7s-23.7,27.1-40.9,86.7c-9.9,34.8-13.8,62.4-14.9,79.5
						c29.8,19.9,59.1,40.9,88.4,62.4C208.2,492.9,194.4,451.5,188.9,400.1z"/>
					<path d="M350.7,174.8c-0.6,0-1.7-0.6-2.2-0.6c2.8-1.7,7.7-3.3,7.7-3.3s-11.6-2.2-14.9,2.2c-3.3,4.4-3.9,11.6,3.3,8.3l0,0
						c1.1-0.6,2.2-0.6,3.9-1.7C352.4,178.6,354,175.9,350.7,174.8z"/>
					<path d="M375.6,146.6c3.3-3.3-19.3-3.3-42.5-13.8c-24.9-11.6-37.6-3.9-37.6-3.9s7.7,0,17.7,6.1c14.4,8.8,6.1,19.3,37,15.5
						C370.6,147.2,375.6,146.6,375.6,146.6z"/>
					<g>
						<path fill="#51504C" d="M315.9,390.7c-20.4-49.2-17.1-95-17.1-95c-13.8,79,19.9,163.5,32.6,192.2c8.8-7.7,17.7-14.9,26.5-22.6
							C351.8,456.4,332.5,430.5,315.9,390.7z"/>
					</g>
				</g>
			</g>
		</g>
		<g>
			<g>
				<defs>
					<path id="SVGID_3_" d="M348.5,400.7l-97.8,46.9L153,400.7c-39.8-19.3-65.7-59.6-65.7-103.8V47.2h326.9v64.6l25.4,108.8
						l-25.4,55.2v21C414.2,341,388.3,381.3,348.5,400.7z"/>
				</defs>
				<clipPath id="SVGID_4_">
					<use xlink:href="#SVGID_3_"  overflow="visible"/>
				</clipPath>
				<g clip-path="url(#SVGID_4_)">
					<g>
						<path fill="#51504C" d="M341.3,285.2c2.2,24.3,6.6,58,14.9,83.9c0,0-27.1-16-39.8-41.4c0,0-6.6,49.7,11.6,98.9
							c0,0,26-6.1,51.9-21.5c25.4-15.5,27.1-28.2,27.1-28.2S354,334.9,341.3,285.2z"/>
					</g>
				</g>
			</g>
		</g>
		<g>
			<g>
				<defs>
					<path id="SVGID_5_" d="M348.5,400.7l-97.8,46.9L153,400.7c-39.8-19.3-65.7-59.6-65.7-103.8V47.2h326.9v64.6l25.4,108.8
						l-25.4,55.2v21C414.2,341,388.3,381.3,348.5,400.7z"/>
				</defs>
				<clipPath id="SVGID_6_">
					<use xlink:href="#SVGID_5_"  overflow="visible"/>
				</clipPath>
				<g clip-path="url(#SVGID_6_)">
					<path fill="#FFFFFF" d="M387.1,400.1c17.7-13.3,19.3-23.2,19.3-23.2s-52.5-42-65.2-91.7C343.5,325.5,380,389.6,387.1,400.1z"/>
				</g>
			</g>
		</g>
	</g>
	<g>
		<g display="none">
			<path display="inline" fill="#1B293B" stroke="#1B293B" stroke-width="11" stroke-linecap="round" stroke-miterlimit="10" d="
				M107.1,214.1c0,0,1.9,9.9,2.8,15.5c0.1,0.6,0.8,1.1,1.4,0.9c2-0.6,6.4-1.7,11.8-1.9c0.7,0,1.3,0,2,0c6.2,0,11.5,1.3,13.8,2l0,0
				c0.6,0.2,1.3-0.2,1.4-0.9c0.9-5.5,2.8-15.5,2.8-15.5c-1.2,0.2-2.3,2.1-2.3,2.1s-0.7-1-1.4-0.3l-0.1,0.1c-0.7,0.9,0.6,1.9,0.6,1.9
				s0,1.2-0.7,2.6c-0.7,1.5-3.3,1.3-4.1,0.1c-0.8-1.3-0.2-3-0.2-3s1.3,0,1.3-1.2c0-0.1,0-0.1,0-0.2c-0.1-1.5-2-2.1-3.1-1
				c-0.2,0.2-0.3,0.4-0.4,0.5c-0.3,0.8,0.8,1.6,0.8,1.6s-0.6,2.8-2,3.2c-1.8,0.5-3-0.5-3.5-1c-1.5-1.4-1.4-3.7-1.4-3.7
				s1.6,0,1.8-1.2c0.3-1.9-2.1-2-2.1-2s1.3-1.9-1.3-4.4c-2.6,2.5-1.3,4.4-1.3,4.4s-2.3,0.2-2.1,2c0.1,0.8,1.9,1.3,1.9,1.3
				s0.1,1.8-1.4,3.6c-0.5,0.6-1.9,1.3-3.6,1.1c-1.5-0.2-2-3.2-2-3.2s1.1-0.8,0.8-1.6c-0.1-0.2-0.2-0.3-0.3-0.5c-1.1-1.2-3-0.6-3.1,1
				c0,0.1,0,0.1,0,0.2c0.1,1.2,1.3,1.2,1.3,1.2s0.6,1.7-0.2,3c-0.7,1.2-3.3,1.4-4.1-0.1c-0.7-1.5-0.7-2.6-0.7-2.6s1.4-1,0.6-1.9
				c-0.7-0.9-1.5,0.2-1.5,0.2S108.2,214.4,107.1,214.1z"/>
			<path display="inline" fill="#FFFFFF" d="M139.1,229.6l-0.3,0.5l0,0c0.6,0.2,1.3-0.2,1.4-0.9c0.9-5.5,2.8-15.1,2.8-15.1
				c-1.2,0.2-2.3,2.1-2.3,2.1s-0.7-1-1.4-0.3c0,0,0.4,0.1,0.7,0.5c1.1,1,1.3,2.9,1.3,2.9L139,226c-1.1-0.2-4.6,0.6-4.6,0.6
				C137.4,227.2,139.1,229.6,139.1,229.6z"/>
			<path display="inline" fill="#1B293B" d="M140.2,229.2c0,0,0-0.4-0.8-0.7c-1.2-0.4-3.4-1.3-6.7-1.8c0,0,3-0.7,7,0.7
				c0.6,0.2,0.8-0.1,0.9-0.5c0-0.1,0.2,0.9,0.3,0.9L140.2,229.2z"/>
			<path display="inline" fill="#1B293B" d="M109.5,228.9c0,0,0.4,0.5,0.4,0.4c0-0.4,0.1-0.6,0.3-0.7c1.1-0.5,3.4-1.3,6.8-1.9
				c0,0-2.5-0.8-6.4,0.4c-0.7,0.2-0.9,0.1-1.2-0.6c0,0-0.5,1.3-0.6,1.3L109.5,228.9z"/>
		</g>
	</g>
</g>
</svg>
