<?xml version="1.0" encoding="utf-8"?>
<!-- Generator: Adobe Illustrator 18.1.1, SVG Export Plug-In . SVG Version: 6.00 Build 0)  -->
<svg width='100px' height='100px' version="1.1" id="Layer_1" xmlns="http://www.w3.org/2000/svg" xmlns:xlink="http://www.w3.org/1999/xlink" x="0px" y="0px"
	 viewBox="0 0 100 100" enable-background="new 0 0 100 100" xml:space="preserve">
<g>
	<circle cx="50.2" cy="49.7" r="49.8"/>
	<path fill="#FFFFFF" d="M37.2,9c0,0-17.3,4.7-25.5,22.7h17.9C29.6,31.7,31.2,19.6,37.2,9z"/>
	<path fill="#FFFFFF" d="M37.2,90.3c0,0-17.3-4.7-25.5-22.7h17.9C29.6,67.6,31.2,79.7,37.2,90.3z"/>
	<path fill="#FFFFFF" d="M63.2,9c0,0,17.3,4.7,25.5,22.7H70.8C70.8,31.7,69.2,19.6,63.2,9z"/>
	<path fill="#FFFFFF" d="M63.4,90.3c0,0,17.3-4.7,25.5-22.7H70.9C70.9,67.6,69.4,79.7,63.4,90.3z"/>
	<path fill="#FFFFFF" d="M37.2,31.7h26.6c0,0-4.6-24.5-13.6-24.5C41.1,7.2,37.2,31.7,37.2,31.7z"/>
	<path fill="#FFFFFF" d="M37,67.6h26.6c0,0-4.6,24.5-13.6,24.5C41,92.1,37,67.6,37,67.6z"/>
	<path fill="#FFFFFF" d="M36,60.5h28.5c0,0,1.9-9.9,0-21.9H36C36,38.7,34.3,49.6,36,60.5z"/>
	<path fill="#FFFFFF" d="M71.7,60.5c0,0,1.8-10.4,0-21.9h19.7c0,0,3.5,10.5,0,21.9H71.7z"/>
	<path fill="#FFFFFF" d="M28.8,60.7c0,0-1.8-10.4,0-21.9H9c0,0-3.5,10.5,0,21.9H28.8z"/>
</g>
</svg>
